<?xml version="1.0" encoding="iso-8859-1"?>
<!-- Uploaded to: SVG Repo, www.svgrepo.com, Generator: SVG Repo Mixer Tools -->
<svg height="800px" width="800px" version="1.1" id="Layer_1" xmlns="http://www.w3.org/2000/svg" xmlns:xlink="http://www.w3.org/1999/xlink" 
	 viewBox="0 0 503.467 503.467" xml:space="preserve">
<g transform="translate(1 3)">
	<path style="fill:#AAB1BA;" d="M498.2,223.56v204.8c0,17.067-17.067,34.133-34.133,34.133h-34.133h-358.4H37.4
		c-17.067,0-34.133-17.067-34.133-34.133v-204.8H498.2z"/>
	<path style="fill:#FF7474;" d="M105.667,274.76c37.547,0,68.267,30.72,68.267,68.267s-30.72,68.267-68.267,68.267
		S37.4,380.573,37.4,343.027S68.12,274.76,105.667,274.76z M395.8,274.76c37.547,0,68.267,30.72,68.267,68.267
		s-30.72,68.267-68.267,68.267s-68.267-30.72-68.267-68.267S358.253,274.76,395.8,274.76z"/>
	<path style="fill:#AAB1BA;" d="M498.2,155.293v68.267H3.267v-68.267c0-17.067,17.067-34.133,34.133-34.133h34.133h34.133H395.8
		h34.133h34.133C481.133,121.16,498.2,138.227,498.2,155.293"/>
	<g>
		<path style="fill:#ECF4F7;" d="M395.8,334.493c5.12,0,8.533,4.267,8.533,8.533s-3.413,8.533-8.533,8.533s-8.533-4.267-8.533-8.533
			S390.68,334.493,395.8,334.493z M105.667,334.493c4.267,0,8.533,4.267,8.533,8.533s-4.267,8.533-8.533,8.533
			c-4.267,0-8.533-4.267-8.533-8.533S101.4,334.493,105.667,334.493z"/>
		<polygon style="fill:#ECF4F7;" points="208.067,360.093 293.4,360.093 293.4,308.893 208.067,308.893 		"/>
	</g>
	<path style="fill:#FF7474;" d="M429.933,155.293c9.387,0,17.067,7.68,17.067,17.067s-7.68,17.067-17.067,17.067
		s-17.067-7.68-17.067-17.067S420.547,155.293,429.933,155.293z M71.533,155.293c9.387,0,17.067,7.68,17.067,17.067
		s-7.68,17.067-17.067,17.067s-17.067-7.68-17.067-17.067S62.147,155.293,71.533,155.293z"/>
	<path style="fill:#ECF4F7;" d="M429.933,35.827v85.333H395.8V52.893H105.667v68.267H71.533V35.827
		c0-9.387,7.68-17.067,17.067-17.067h324.267C422.253,18.76,429.933,26.44,429.933,35.827"/>
</g>
<path style="fill:#51565F;" d="M430.933,485.973c-2.56,0-4.267-1.707-4.267-4.267v-16.213c0-2.56,1.707-4.267,4.267-4.267h34.133
	c14.507,0,29.867-15.36,29.867-29.867V158.293c0-14.507-15.36-29.867-29.867-29.867H38.4c-14.507,0-29.867,15.36-29.867,29.867
	V431.36c0,14.507,15.36,29.867,29.867,29.867h34.133c2.56,0,4.267,1.707,4.267,4.267v16.213c0,2.56-1.707,4.267-4.267,4.267
	c-2.56,0-4.267-1.707-4.267-4.267V469.76H38.4c-19.627,0-38.4-18.773-38.4-38.4V158.293c0-19.627,18.773-38.4,38.4-38.4h426.667
	c19.627,0,38.4,18.773,38.4,38.4V431.36c0,19.627-18.773,38.4-38.4,38.4H435.2v11.947
	C435.2,484.267,433.493,485.973,430.933,485.973z M396.8,469.76H106.667c-2.56,0-4.267-1.707-4.267-4.267
	c0-2.56,1.707-4.267,4.267-4.267H396.8c2.56,0,4.267,1.707,4.267,4.267C401.067,468.053,399.36,469.76,396.8,469.76z M396.8,418.56
	c-40.107,0-72.533-32.427-72.533-72.533s32.427-72.533,72.533-72.533s72.533,32.427,72.533,72.533S436.907,418.56,396.8,418.56z
	 M396.8,282.027c-34.987,0-64,29.013-64,64s29.013,64,64,64s64-29.013,64-64S431.787,282.027,396.8,282.027z M106.667,418.56
	c-40.107,0-72.533-32.427-72.533-72.533s32.427-72.533,72.533-72.533S179.2,305.92,179.2,346.027S146.773,418.56,106.667,418.56z
	 M106.667,282.027c-34.987,0-64,29.013-64,64s29.013,64,64,64s64-29.013,64-64S141.653,282.027,106.667,282.027z M294.4,401.493
	h-85.333c-2.56,0-4.267-1.707-4.267-4.267s1.707-4.267,4.267-4.267H294.4c2.56,0,4.267,1.707,4.267,4.267
	S296.96,401.493,294.4,401.493z M294.4,367.36h-85.333c-2.56,0-4.267-1.707-4.267-4.267v-51.2c0-2.56,1.707-4.267,4.267-4.267H294.4
	c2.56,0,4.267,1.707,4.267,4.267v51.2C298.667,365.653,296.96,367.36,294.4,367.36z M213.333,358.827h76.8V316.16h-76.8V358.827z
	 M396.8,358.827c-6.827,0-12.8-5.973-12.8-12.8s5.973-12.8,12.8-12.8s12.8,5.973,12.8,12.8S403.627,358.827,396.8,358.827z
	 M396.8,341.76c-2.56,0-4.267,1.707-4.267,4.267c0,2.56,1.707,4.267,4.267,4.267s4.267-1.707,4.267-4.267
	C401.067,343.467,399.36,341.76,396.8,341.76z M106.667,358.827c-6.827,0-12.8-5.973-12.8-12.8s5.973-12.8,12.8-12.8
	s12.8,5.973,12.8,12.8S113.493,358.827,106.667,358.827z M106.667,341.76c-2.56,0-4.267,1.707-4.267,4.267
	c0,2.56,1.707,4.267,4.267,4.267s4.267-1.707,4.267-4.267C110.933,343.467,109.227,341.76,106.667,341.76z M465.067,230.827H38.4
	c-2.56,0-4.267-1.707-4.267-4.267c0-2.56,1.707-4.267,4.267-4.267h426.667c2.56,0,4.267,1.707,4.267,4.267
	C469.333,229.12,467.627,230.827,465.067,230.827z M430.933,196.693c-11.947,0-21.333-9.387-21.333-21.333
	c0-11.947,9.387-21.333,21.333-21.333c11.947,0,21.333,9.387,21.333,21.333C452.267,187.307,442.88,196.693,430.933,196.693z
	 M430.933,162.56c-6.827,0-12.8,5.973-12.8,12.8c0,6.827,5.973,12.8,12.8,12.8s12.8-5.973,12.8-12.8
	C443.733,168.533,437.76,162.56,430.933,162.56z M72.533,196.693c-11.947,0-21.333-9.387-21.333-21.333
	c0-11.947,9.387-21.333,21.333-21.333s21.333,9.387,21.333,21.333C93.867,187.307,84.48,196.693,72.533,196.693z M72.533,162.56
	c-6.827,0-12.8,5.973-12.8,12.8c0,6.827,5.973,12.8,12.8,12.8c6.827,0,12.8-5.973,12.8-12.8
	C85.333,168.533,79.36,162.56,72.533,162.56z M362.667,179.627H345.6c-2.56,0-4.267-1.707-4.267-4.267
	c0-2.56,1.707-4.267,4.267-4.267h17.067c2.56,0,4.267,1.707,4.267,4.267C366.933,177.92,365.227,179.627,362.667,179.627z
	 M311.467,179.627H294.4c-2.56,0-4.267-1.707-4.267-4.267c0-2.56,1.707-4.267,4.267-4.267h17.067c2.56,0,4.267,1.707,4.267,4.267
	C315.733,177.92,314.027,179.627,311.467,179.627z M260.267,179.627H243.2c-2.56,0-4.267-1.707-4.267-4.267
	c0-2.56,1.707-4.267,4.267-4.267h17.067c2.56,0,4.267,1.707,4.267,4.267C264.533,177.92,262.827,179.627,260.267,179.627z
	 M209.067,179.627H192c-2.56,0-4.267-1.707-4.267-4.267c0-2.56,1.707-4.267,4.267-4.267h17.067c2.56,0,4.267,1.707,4.267,4.267
	C213.333,177.92,211.627,179.627,209.067,179.627z M157.867,179.627H140.8c-2.56,0-4.267-1.707-4.267-4.267
	c0-2.56,1.707-4.267,4.267-4.267h17.067c2.56,0,4.267,1.707,4.267,4.267C162.133,177.92,160.427,179.627,157.867,179.627z
	 M430.933,94.293c-2.56,0-4.267-1.707-4.267-4.267v-51.2c0-6.827-5.973-12.8-12.8-12.8H89.6c-6.827,0-12.8,5.973-12.8,12.8v51.2
	c0,2.56-1.707,4.267-4.267,4.267c-2.56,0-4.267-1.707-4.267-4.267v-51.2c0-11.947,9.387-21.333,21.333-21.333h324.267
	c11.947,0,21.333,9.387,21.333,21.333v51.2C435.2,92.587,433.493,94.293,430.933,94.293z M396.8,94.293
	c-2.56,0-4.267-1.707-4.267-4.267V60.16h-281.6v29.867c0,2.56-1.707,4.267-4.267,4.267s-4.267-1.707-4.267-4.267V55.893
	c0-2.56,1.707-4.267,4.267-4.267H396.8c2.56,0,4.267,1.707,4.267,4.267v34.133C401.067,92.587,399.36,94.293,396.8,94.293z"/>
</svg>